<svg width="75" height="49" viewBox="0 0 75 49" fill="none" xmlns="http://www.w3.org/2000/svg">
<path d="M21.0351 48H18.9711L15.8631 43.656V48H14.0511V39.432H15.8631V43.584L18.9351 39.432H20.8671L17.7471 43.548L21.0351 48ZM29.8152 43.704C29.8152 44.368 29.7312 44.972 29.5632 45.516C29.4032 46.052 29.1552 46.516 28.8192 46.908C28.4912 47.3 28.0672 47.6 27.5472 47.808C27.0352 48.016 26.4312 48.12 25.7352 48.12C25.0392 48.12 24.4312 48.016 23.9112 47.808C23.3992 47.592 22.9752 47.292 22.6392 46.908C22.3112 46.516 22.0632 46.048 21.8952 45.504C21.7352 44.96 21.6552 44.356 21.6552 43.692C21.6552 42.804 21.7992 42.032 22.0872 41.376C22.3832 40.72 22.8312 40.212 23.4312 39.852C24.0392 39.484 24.8112 39.3 25.7472 39.3C26.6752 39.3 27.4392 39.484 28.0392 39.852C28.6392 40.212 29.0832 40.724 29.3712 41.388C29.6672 42.044 29.8152 42.816 29.8152 43.704ZM23.5632 43.704C23.5632 44.304 23.6392 44.82 23.7912 45.252C23.9432 45.684 24.1792 46.016 24.4992 46.248C24.8192 46.48 25.2312 46.596 25.7352 46.596C26.2552 46.596 26.6712 46.48 26.9832 46.248C27.3032 46.016 27.5352 45.684 27.6792 45.252C27.8312 44.82 27.9072 44.304 27.9072 43.704C27.9072 42.8 27.7392 42.092 27.4032 41.58C27.0672 41.068 26.5152 40.812 25.7472 40.812C25.2352 40.812 24.8192 40.928 24.4992 41.16C24.1792 41.392 23.9432 41.724 23.7912 42.156C23.6392 42.588 23.5632 43.104 23.5632 43.704ZM42.526 48H31.75V39.432H33.562V46.488H36.226V39.432H38.05V46.488H40.714V39.432H42.526V48ZM44.8475 39.432H46.4795V43.572C46.4795 43.772 46.4755 43.996 46.4675 44.244C46.4595 44.492 46.4515 44.736 46.4435 44.976C46.4355 45.208 46.4275 45.412 46.4195 45.588C46.4115 45.756 46.4035 45.872 46.3955 45.936H46.4315L50.3915 39.432H52.5635V48H50.9435V43.884C50.9435 43.668 50.9475 43.432 50.9555 43.176C50.9635 42.912 50.9715 42.66 50.9795 42.42C50.9955 42.18 51.0075 41.972 51.0155 41.796C51.0315 41.612 51.0435 41.492 51.0515 41.436H51.0035L47.0315 48H44.8475V39.432ZM61.8704 48H59.8064L56.6984 43.656V48H54.8864V39.432H56.6984V43.584L59.7704 39.432H61.7024L58.5824 43.548L61.8704 48Z" fill="white"/>
<path fill-rule="evenodd" clip-rule="evenodd" d="M28.9019 5.61556C28.748 5.07783 28.5666 4.55485 28.3572 4.19749C28.1781 3.81828 27.4444 3.05496 25.9423 3.03536C25.2982 2.97557 24.7842 3.00637 24.2526 3.02158C24.0558 3.02722 23.6944 3.02146 23.5558 3.02146C23.2488 3.02146 23 3.26949 23 3.57544C23 3.88139 23.2488 4.12941 23.5558 4.12941C23.7478 4.12941 23.9569 4.12336 24.1777 4.11696C24.6907 4.1021 25.2669 4.08541 25.8392 4.13854C26.3401 4.18503 27.1113 4.26824 27.3974 4.75645C27.5313 4.98476 27.6819 5.39171 27.8329 5.91945C27.9802 6.43412 28.116 7.02013 28.232 7.57721C28.3477 8.13311 28.4425 8.65384 28.5084 9.03595C28.5413 9.22683 28.5669 9.38269 28.5843 9.49054C28.593 9.54446 28.5996 9.58635 28.604 9.61458L28.6089 9.64649L28.6105 9.65667C28.6138 9.67813 28.6182 9.69912 28.6238 9.71957L29.8303 18.8345C29.9185 19.505 30.2498 20.1202 30.7617 20.5641C31.2729 21.0075 31.9291 21.2493 32.6067 21.2442H44.3485C44.9986 21.2553 45.6321 21.0388 46.1387 20.6324C46.6467 20.2247 46.9947 19.652 47.1218 19.0143L48.989 9.7195C49.0217 9.55675 48.9795 9.38795 48.8739 9.25957C48.7683 9.13119 48.6106 9.05676 48.4441 9.05676H29.6393C29.6287 8.99298 29.6168 8.92324 29.6039 8.84828C29.5366 8.45776 29.4394 7.92392 29.3203 7.35204C29.2015 6.78134 29.0595 6.16635 28.9019 5.61556ZM29.8039 10.1647H47.766L46.0315 18.7985C45.9553 19.1811 45.7465 19.5247 45.4417 19.7693C45.1369 20.0139 44.7554 20.1437 44.3642 20.1362L32.6045 20.1362L32.5998 20.1363C32.1927 20.1397 31.7984 19.9946 31.4913 19.7282C31.1841 19.4619 30.9853 19.0923 30.9324 18.6899L29.8039 10.1647Z" fill="white"/>
<path fill-rule="evenodd" clip-rule="evenodd" d="M31.7708 23.4601C30.2361 23.4601 28.9919 24.7002 28.9919 26.23C28.9919 27.7597 30.2361 28.9998 31.7708 28.9998C33.3055 28.9998 34.5497 27.7597 34.5497 26.23C34.5497 24.7002 33.3055 23.4601 31.7708 23.4601ZM30.1035 26.23C30.1035 25.3121 30.85 24.568 31.7708 24.568C32.6916 24.568 33.4381 25.3121 33.4381 26.23C33.4381 27.1478 32.6916 27.8919 31.7708 27.8919C30.85 27.8919 30.1035 27.1478 30.1035 26.23Z" fill="white"/>
<path fill-rule="evenodd" clip-rule="evenodd" d="M45.1094 23.4601C43.5747 23.4601 42.3305 24.7002 42.3305 26.23C42.3305 27.7597 43.5747 28.9998 45.1094 28.9998C46.6441 28.9998 47.8883 27.7597 47.8883 26.23C47.8883 24.7002 46.6441 23.4601 45.1094 23.4601ZM43.4421 26.23C43.4421 25.3121 44.1886 24.568 45.1094 24.568C46.0302 24.568 46.7767 25.3121 46.7767 26.23C46.7767 27.1478 46.0302 27.8919 45.1094 27.8919C44.1886 27.8919 43.4421 27.1478 43.4421 26.23Z" fill="white"/>
</svg>
