<svg width="75" height="49" viewBox="0 0 75 49" fill="none" xmlns="http://www.w3.org/2000/svg">
<path d="M21.8567 48L19.7927 41.28H19.7447C19.7527 41.44 19.7647 41.68 19.7807 42C19.7967 42.32 19.8127 42.664 19.8287 43.032C19.8447 43.392 19.8527 43.72 19.8527 44.016V48H18.2327V39.432H20.7047L22.7327 45.984H22.7687L24.9167 39.432H27.3887V48H25.6967V43.944C25.6967 43.672 25.7007 43.36 25.7087 43.008C25.7247 42.656 25.7367 42.324 25.7447 42.012C25.7607 41.692 25.7727 41.452 25.7807 41.292H25.7327L23.5247 48H21.8567ZM34.645 48H29.713V39.432H34.645V40.92H31.525V42.804H34.429V44.292H31.525V46.5H34.645V48ZM43.6078 48H41.7958V44.304H38.3998V48H36.5878V39.432H38.3998V42.792H41.7958V39.432H43.6078V48ZM56.9876 43.704C56.9876 44.368 56.9116 44.972 56.7596 45.516C56.6076 46.052 56.3716 46.516 56.0516 46.908C55.7396 47.3 55.3436 47.6 54.8636 47.808C54.3836 48.016 53.8196 48.12 53.1716 48.12C52.3716 48.12 51.6996 47.964 51.1556 47.652C50.6196 47.332 50.2036 46.888 49.9076 46.32C49.6196 45.744 49.4436 45.072 49.3796 44.304H47.7356V48H45.9236V39.432H47.7356V42.792H49.4156C49.5036 42.08 49.6956 41.464 49.9916 40.944C50.2956 40.416 50.7116 40.012 51.2396 39.732C51.7676 39.444 52.4156 39.3 53.1836 39.3C54.0476 39.3 54.7596 39.484 55.3196 39.852C55.8876 40.212 56.3076 40.724 56.5796 41.388C56.8516 42.044 56.9876 42.816 56.9876 43.704ZM51.2396 43.704C51.2396 44.304 51.3076 44.82 51.4436 45.252C51.5796 45.684 51.7916 46.016 52.0796 46.248C52.3676 46.48 52.7316 46.596 53.1716 46.596C53.6276 46.596 53.9996 46.48 54.2876 46.248C54.5756 46.016 54.7836 45.684 54.9116 45.252C55.0476 44.82 55.1156 44.304 55.1156 43.704C55.1156 43.104 55.0476 42.588 54.9116 42.156C54.7836 41.724 54.5756 41.392 54.2876 41.16C54.0076 40.928 53.6436 40.812 53.1956 40.812C52.7476 40.812 52.3756 40.928 52.0796 41.16C51.7916 41.392 51.5796 41.724 51.4436 42.156C51.3076 42.588 51.2396 43.104 51.2396 43.704Z" fill="white"/>
<path fill-rule="evenodd" clip-rule="evenodd" d="M25.0448 27.9552H26.8251C26.8803 27.9267 26.9343 27.8973 26.987 27.8673C26.988 27.8672 37.5856 21.0794 38.5971 20.4369L47.1487 27.5087C47.3348 27.662 47.5708 27.8327 47.8263 27.9552H48.9552V26.5071C48.6657 26.8739 48.1137 26.8901 47.2935 26.2065L38.619 19.0023L26.8676 26.5288C25.9166 27.0695 25.3232 26.97 25.0448 26.5415V27.9552V27.9552ZM48.9552 24.4823V16C48.9552 14.2572 48.5774 12.5984 47.8992 11.1017C46.8311 12.1577 45.7551 13.223 44.6692 14.2953L48.9457 24.4587L48.9551 24.4824L48.9552 24.4823ZM47.3053 9.96014C45.6987 7.23685 43.0446 5.19674 39.9072 4.40535C40.5586 5.87758 41.2125 7.35019 41.8656 8.82182C43.6795 9.19917 45.4734 9.57486 47.2498 9.94368C47.2673 9.94794 47.2858 9.95348 47.3053 9.96014ZM38.8381 4.1872C38.2387 4.09347 37.6248 4.04482 37.0001 4.04482C33.8143 4.04482 30.9096 5.30792 28.7612 7.35784C29.0252 7.28667 29.2964 7.25513 29.4543 7.25625L36.1035 7.9973L38.8381 4.18718V4.1872ZM28.0623 8.08253C27.8774 8.29096 27.6995 8.50583 27.5293 8.72676C28.7565 10.1148 30.1709 11.7318 31.3431 13.0469C30.9112 13.7139 30.4784 14.3879 30.045 15.0635C29.0459 13.9437 27.7452 12.4527 26.7453 11.324C26.7008 11.2598 26.6584 11.1913 26.6525 11.1115C26.6511 11.0924 26.6522 11.0731 26.6533 11.054L26.8809 9.65484C25.7191 11.4967 25.0449 13.6733 25.0449 15.9999V24.6554C25.1415 24.4055 25.2748 24.1646 25.4482 23.9539L32.4117 13.056C31.0338 11.5035 29.5064 9.75221 28.1187 8.18295C28.0953 8.14837 28.0767 8.1149 28.0623 8.08251L28.0623 8.08253ZM40.572 9.83068C40.0864 8.76165 39.6004 7.68896 39.1148 6.61951L37.3647 9.43908C37.2778 9.54886 37.1841 9.61334 37.0804 9.6494C36.9728 9.68679 36.859 9.69412 36.7305 9.69233L31.6461 9.21017L34.8727 12.3518C34.9878 12.4628 35.0565 12.5845 35.0801 12.7208C35.1035 12.8551 35.0802 12.9997 35.0082 13.1574L30.1045 21.7753L38.2298 16.1186C38.4632 15.9988 38.6517 15.979 38.8267 16.0233C39.0054 16.0685 39.1694 16.176 39.3472 16.3134L45.3637 21.6781L42.5225 14.2662C42.4595 14.0981 42.38 13.9086 42.3572 13.7278C42.3337 13.5422 42.3685 13.3625 42.532 13.2189C43.4162 12.4832 44.2939 11.7542 45.1674 11.0295C43.8327 10.7617 42.4857 10.4895 41.1292 10.2139C40.9951 10.1868 40.8877 10.1503 40.799 10.0913C40.713 10.0341 40.6295 9.9571 40.572 9.83068H40.572ZM30.7004 27.9552H43.6854L37.9658 23.2531L30.7004 27.9552ZM48.9552 29.0001H25.0448C24.4678 29.0001 24 28.5322 24 27.9552V16C24 12.4239 25.4622 9.17358 27.8179 6.81793C30.1736 4.46222 33.4239 3 36.9999 3C40.5761 3 43.8264 4.46222 46.1821 6.81793C48.5378 9.17361 50 12.4239 50 16V27.9552C50 28.5322 49.5322 29.0001 48.9552 29.0001H48.9552Z" fill="white"/>
</svg>
